# xmcd
#
# Track frame offsets:
#	150
#	20062
#	37122
#	53007
#	71890
#	89675
#	115997
#	131772
#	147340
#	161830
#	173182
#	190462
#
# Disc length: 2743 seconds
#
# Revision: 1
# Processed by: cddbd v1.5.1PL0 Copyright (c) Steve Scherf et al.
# Submitted via: CDex 1.50Beta5
#
DISCID=bc0ab50c
DTITLE=さまざまなアーティスト - HIT HIT DISCO
DYEAR=1900
DGENRE=Rock
TTITLE0=I SHOULD BE LUCKY
TTITLE1=GO BABY GO
TTITLE2=TOY BOY
TTITLE3=I WANT YOU BACK
TTITLE4=I SAWHIM STANDING THERE
TTITLE5=S.T.O.P.
TTITLE6=TOGETHER FOREVER
TTITLE7=I WANT TO BE YOUR PROPERTY
TTITLE8=YOU ONLY YOU
TTITLE9=CROSS MY HEART
TTITLE10=HEAVEN IS A PLACE ON EARTH
TTITLE11=ROCKET 2 U
EXTD=
EXTT0=
EXTT1=
EXTT2=
EXTT3=
EXTT4=
EXTT5=
EXTT6=
EXTT7=
EXTT8=
EXTT9=
EXTT10=
EXTT11=
PLAYORDER=
